<svg xmlns="http://www.w3.org/2000/svg" xmlns:xlink="http://www.w3.org/1999/xlink" viewBox="0 0 211 199"><defs><style>.cls-1{fill:#e1dcdc;}.cls-2,.cls-3,.cls-7{fill:none;stroke-width:0.25px;}.cls-2{stroke:#cdc3c3;}.cls-2,.cls-3{stroke-miterlimit:10;}.cls-3{stroke:#f0ebeb;}.cls-4{fill:#f0efee;}.cls-5{fill:#fdfcfb;}.cls-6{fill:#fffefd;}.cls-7{stroke:#f0efee;stroke-linejoin:round;}.cls-8{fill:#fff;}.cls-9{fill:#706f6f;}.cls-10{fill:url(#Unbenannter_Verlauf_62);}.cls-11{fill:url(#Unbenannter_Verlauf_6);}.cls-12{fill:url(#Unbenannter_Verlauf_166);}.cls-13{fill:url(#Unbenannter_Verlauf_164);}.cls-14{fill:url(#Unbenannter_Verlauf_146);}.cls-15{fill:#3c3c3b;}.cls-16{fill:url(#Unbenannter_Verlauf_166-2);}.cls-17{fill:url(#Unbenannter_Verlauf_164-2);}.cls-18{fill:url(#Unbenannter_Verlauf_146-2);}.cls-19{fill:url(#Unbenannter_Verlauf_53);}.cls-20{fill:url(#Unbenannter_Verlauf_61);}.cls-21{fill:url(#Unbenannter_Verlauf_90);}.cls-22{fill:url(#Unbenannter_Verlauf_47);}.cls-23{fill:url(#Unbenannter_Verlauf_61-2);}.cls-24{fill:url(#Unbenannter_Verlauf_90-2);}.cls-25{fill:url(#Unbenannter_Verlauf_47-2);}.cls-26{fill:url(#Unbenannter_Verlauf_53-2);}.cls-27{fill:url(#Unbenannter_Verlauf_30);}.cls-28{fill:url(#Unbenannter_Verlauf_74);}.cls-29{fill:url(#Unbenannter_Verlauf_109);}.cls-30{fill:url(#Unbenannter_Verlauf_101);}.cls-31{fill:url(#Unbenannter_Verlauf_112);}.cls-32{fill:url(#Unbenannter_Verlauf_101-2);}.cls-33{fill:url(#Unbenannter_Verlauf_112-2);}.cls-34{opacity:0.8;}.cls-35{fill:#9ab3ab;}.cls-36{fill:url(#Unbenannter_Verlauf_146-3);}.cls-37{fill:url(#Unbenannter_Verlauf_140);}.cls-38{fill:url(#Unbenannter_Verlauf_171);}.cls-39{fill:url(#Unbenannter_Verlauf_146-4);}.cls-40{fill:url(#Unbenannter_Verlauf_140-2);}.cls-41{fill:url(#Unbenannter_Verlauf_171-2);}.cls-42{fill:url(#Unbenannter_Verlauf_53-3);}.cls-43{fill:url(#Unbenannter_Verlauf_56);}.cls-44{fill:url(#Unbenannter_Verlauf_86);}.cls-45{fill:url(#Unbenannter_Verlauf_90-3);}.cls-46{fill:url(#Unbenannter_Verlauf_47-3);}.cls-47{fill:url(#Unbenannter_Verlauf_133);}.cls-48{fill:url(#Unbenannter_Verlauf_141);}.cls-49{fill:url(#Unbenannter_Verlauf_47-4);}.cls-50{fill:url(#Unbenannter_Verlauf_79);}.cls-51{fill:url(#Unbenannter_Verlauf_53-5);}.cls-52{fill:url(#Unbenannter_Verlauf_53-6);}</style><linearGradient id="Unbenannter_Verlauf_62" x1="105.87" y1="149.44" x2="105.87" y2="147.25" gradientUnits="userSpaceOnUse"><stop offset="0" stop-color="#dadada"/><stop offset="1" stop-color="#878787"/></linearGradient><linearGradient id="Unbenannter_Verlauf_6" x1="56.37" y1="150.5" x2="155.37" y2="150.5" gradientUnits="userSpaceOnUse"><stop offset="0" stop-color="#ebeae9"/><stop offset="1" stop-color="#f5f4f3"/></linearGradient><linearGradient id="Unbenannter_Verlauf_166" x1="166.12" y1="138.81" x2="166.12" y2="147.84" gradientUnits="userSpaceOnUse"><stop offset="0" stop-color="#ededed"/><stop offset="0.08" stop-color="#dbdbdb"/><stop offset="0.23" stop-color="#bdbdbd"/><stop offset="0.4" stop-color="#a5a5a5"/><stop offset="0.57" stop-color="#949494"/><stop offset="0.76" stop-color="#8a8a8a"/><stop offset="1" stop-color="#878787"/></linearGradient><linearGradient id="Unbenannter_Verlauf_164" x1="164.37" y1="143.38" x2="167.37" y2="143.38" gradientUnits="userSpaceOnUse"><stop offset="0" stop-color="#9d9d9c"/><stop offset="1" stop-color="#b2b2b2"/></linearGradient><linearGradient id="Unbenannter_Verlauf_146" x1="159.33" y1="146.51" x2="165.98" y2="139.86" gradientUnits="userSpaceOnUse"><stop offset="0" stop-color="#b2b2b2"/><stop offset="0.5" stop-color="#dadada"/><stop offset="1" stop-color="#c6c6c6"/></linearGradient><linearGradient id="Unbenannter_Verlauf_166-2" x1="166.12" y1="48.81" x2="166.12" y2="57.84" xlink:href="#Unbenannter_Verlauf_166"/><linearGradient id="Unbenannter_Verlauf_164-2" x1="164.37" y1="53.38" x2="167.37" y2="53.38" xlink:href="#Unbenannter_Verlauf_164"/><linearGradient id="Unbenannter_Verlauf_146-2" x1="159.33" y1="56.51" x2="165.98" y2="49.86" xlink:href="#Unbenannter_Verlauf_146"/><linearGradient id="Unbenannter_Verlauf_53" x1="109.15" y1="115.89" x2="109.85" y2="113.8" gradientUnits="userSpaceOnUse"><stop offset="0" stop-color="#878787"/><stop offset="0.18" stop-color="#706f6f"/><stop offset="0.75" stop-color="#ededed"/><stop offset="1" stop-color="#878787"/></linearGradient><linearGradient id="Unbenannter_Verlauf_61" x1="46.62" y1="142.63" x2="50.37" y2="142.63" gradientUnits="userSpaceOnUse"><stop offset="0" stop-color="#706f6f"/><stop offset="1" stop-color="#c6c6c6"/></linearGradient><linearGradient id="Unbenannter_Verlauf_90" x1="50.25" y1="147.08" x2="50.25" y2="142" gradientUnits="userSpaceOnUse"><stop offset="0" stop-color="#b2b2b2"/><stop offset="1" stop-color="#dadada"/></linearGradient><linearGradient id="Unbenannter_Verlauf_47" x1="49.03" y1="142.45" x2="48.23" y2="140.05" gradientUnits="userSpaceOnUse"><stop offset="0" stop-color="#ededed"/><stop offset="1" stop-color="#c6c6c6"/></linearGradient><linearGradient id="Unbenannter_Verlauf_61-2" x1="46.62" y1="52.63" x2="50.37" y2="52.63" xlink:href="#Unbenannter_Verlauf_61"/><linearGradient id="Unbenannter_Verlauf_90-2" x1="50.25" y1="57.08" x2="50.25" y2="52" xlink:href="#Unbenannter_Verlauf_90"/><linearGradient id="Unbenannter_Verlauf_47-2" x1="49.03" y1="52.45" x2="48.23" y2="50.05" xlink:href="#Unbenannter_Verlauf_47"/><linearGradient id="Unbenannter_Verlauf_53-2" x1="77.12" y1="47.56" x2="74.62" y2="47.56" xlink:href="#Unbenannter_Verlauf_53"/><linearGradient id="Unbenannter_Verlauf_30" x1="135.87" y1="178.5" x2="135.87" y2="38.5" gradientUnits="userSpaceOnUse"><stop offset="0" stop-color="#bfddd2" stop-opacity="0.3"/><stop offset="1" stop-color="#bfddd2" stop-opacity="0.6"/></linearGradient><linearGradient id="Unbenannter_Verlauf_74" x1="75.87" y1="178.5" x2="75.87" y2="38.5" xlink:href="#Unbenannter_Verlauf_30"/><linearGradient id="Unbenannter_Verlauf_109" x1="141.6" y1="105.44" x2="158.56" y2="111.61" gradientUnits="userSpaceOnUse"><stop offset="0" stop-color="#fff" stop-opacity="0.1"/><stop offset="1" stop-color="#fff" stop-opacity="0.3"/></linearGradient><linearGradient id="Unbenannter_Verlauf_101" x1="111.16" y1="108.52" x2="160.45" y2="108.52" gradientUnits="userSpaceOnUse"><stop offset="0" stop-color="#fff" stop-opacity="0.1"/><stop offset="1" stop-color="#fff" stop-opacity="0.2"/></linearGradient><linearGradient id="Unbenannter_Verlauf_112" x1="127.68" y1="106.17" x2="111.09" y2="100.13" gradientUnits="userSpaceOnUse"><stop offset="0" stop-color="#fff" stop-opacity="0.4"/><stop offset="1" stop-color="#fff" stop-opacity="0.1"/></linearGradient><linearGradient id="Unbenannter_Verlauf_101-2" x1="54.11" y1="107.98" x2="94.51" y2="107.98" gradientTransform="translate(153.25 3.34) rotate(71.57)" xlink:href="#Unbenannter_Verlauf_101"/><linearGradient id="Unbenannter_Verlauf_112-2" x1="70.12" y1="106.7" x2="49.81" y2="99.31" xlink:href="#Unbenannter_Verlauf_112"/><linearGradient id="Unbenannter_Verlauf_146-3" x1="160.08" y1="146.76" x2="166.73" y2="140.11" xlink:href="#Unbenannter_Verlauf_146"/><linearGradient id="Unbenannter_Verlauf_140" x1="161.87" y1="144.18" x2="166.37" y2="144.18" gradientUnits="userSpaceOnUse"><stop offset="0" stop-color="#9d9d9c"/><stop offset="0.25" stop-color="#c6c6c6"/><stop offset="1" stop-color="#706f6f"/></linearGradient><linearGradient id="Unbenannter_Verlauf_171" x1="163.37" y1="143.99" x2="166.62" y2="143.99" gradientUnits="userSpaceOnUse"><stop offset="0" stop-color="#9d9d9c"/><stop offset="0.2" stop-color="#dadada"/><stop offset="1" stop-color="#706f6f"/></linearGradient><linearGradient id="Unbenannter_Verlauf_146-4" x1="160.08" y1="56.76" x2="166.73" y2="50.11" xlink:href="#Unbenannter_Verlauf_146"/><linearGradient id="Unbenannter_Verlauf_140-2" x1="161.87" y1="54.18" x2="166.37" y2="54.18" xlink:href="#Unbenannter_Verlauf_140"/><linearGradient id="Unbenannter_Verlauf_171-2" x1="163.37" y1="53.99" x2="166.62" y2="53.99" xlink:href="#Unbenannter_Verlauf_171"/><linearGradient id="Unbenannter_Verlauf_53-3" x1="111.15" y1="116.55" x2="111.85" y2="114.46" xlink:href="#Unbenannter_Verlauf_53"/><linearGradient id="Unbenannter_Verlauf_56" x1="112.25" y1="116.88" x2="112.25" y2="114.63" gradientUnits="userSpaceOnUse"><stop offset="0" stop-color="#878787"/><stop offset="1" stop-color="#ededed"/></linearGradient><linearGradient id="Unbenannter_Verlauf_86" x1="45.38" y1="144.17" x2="49.37" y2="144.17" gradientUnits="userSpaceOnUse"><stop offset="0" stop-color="#706f6f"/><stop offset="0.5" stop-color="#c6c6c6"/><stop offset="1" stop-color="#9d9d9c"/></linearGradient><linearGradient id="Unbenannter_Verlauf_90-3" x1="49.5" y1="147.33" x2="49.5" y2="142.25" xlink:href="#Unbenannter_Verlauf_90"/><linearGradient id="Unbenannter_Verlauf_47-3" x1="47.9" y1="142.82" x2="47.1" y2="140.43" xlink:href="#Unbenannter_Verlauf_47"/><linearGradient id="Unbenannter_Verlauf_133" x1="45.38" y1="54.17" x2="49.37" y2="54.17" xlink:href="#Unbenannter_Verlauf_86"/><linearGradient id="Unbenannter_Verlauf_141" x1="49.5" y1="57.33" x2="49.5" y2="52.25" xlink:href="#Unbenannter_Verlauf_90"/><linearGradient id="Unbenannter_Verlauf_47-4" x1="47.9" y1="52.82" x2="47.1" y2="50.43" xlink:href="#Unbenannter_Verlauf_47"/><linearGradient id="Unbenannter_Verlauf_79" x1="149.54" y1="-53.02" x2="149.54" y2="-55.52" gradientTransform="matrix(0, 1, 1, 0, 130.15, -105.69)" gradientUnits="userSpaceOnUse"><stop offset="0" stop-color="#b2b2b2"/><stop offset="0.18" stop-color="#878787"/><stop offset="0.75" stop-color="#fbfbfb"/><stop offset="1" stop-color="#b2b2b2"/></linearGradient><linearGradient id="Unbenannter_Verlauf_53-5" x1="140.07" y1="-240.65" x2="140.07" y2="-239.4" gradientTransform="translate(-164.15 -105.69) rotate(90)" xlink:href="#Unbenannter_Verlauf_53"/><linearGradient id="Unbenannter_Verlauf_53-6" x1="76.75" y1="24" x2="75" y2="24" xlink:href="#Unbenannter_Verlauf_53"/></defs><g id="boden"><polygon id="boden-2" data-name="boden" class="cls-1" points="406.13 218.5 106.13 118.5 105.88 118.5 -194.13 218.5 105.88 318.5 406.13 218.5"/><g id="fugen_dunkel"><polygon class="cls-2" points="195.88 288.25 -104.13 188.25 -134.13 198.25 165.88 298.25 195.88 288.25"/><polygon class="cls-2" points="165.88 298.25 -134.13 198.25 -164.13 208.25 135.88 308.25 165.88 298.25"/><polygon class="cls-2" points="225.88 278.25 -74.13 178.25 -104.13 188.25 195.88 288.25 225.88 278.25"/><polygon class="cls-2" points="255.88 268.25 -44.13 168.25 -74.13 178.25 225.88 278.25 255.88 268.25"/><polygon class="cls-2" points="285.88 258.25 -14.13 158.25 -44.13 168.25 255.88 268.25 285.88 258.25"/><polygon class="cls-2" points="315.88 248.25 15.88 148.25 -14.13 158.25 285.88 258.25 315.88 248.25"/><polygon class="cls-2" points="345.88 238.25 45.88 138.25 15.88 148.25 315.88 248.25 345.88 238.25"/><polygon class="cls-2" points="375.88 228.25 75.88 128.25 45.88 138.25 345.88 238.25 375.88 228.25"/><polygon class="cls-2" points="405.88 218.25 105.88 118.25 75.88 128.25 375.88 228.25 405.88 218.25"/><polygon class="cls-2" points="15.88 288.25 315.88 188.25 345.88 198.25 45.88 298.25 15.88 288.25"/><polygon class="cls-2" points="45.88 298.25 345.88 198.25 375.88 208.25 75.88 308.25 45.88 298.25"/><polygon class="cls-2" points="-14.13 278.25 285.88 178.25 315.88 188.25 15.88 288.25 -14.13 278.25"/><polygon class="cls-2" points="-44.13 268.25 255.88 168.25 285.88 178.25 -14.13 278.25 -44.13 268.25"/><polygon class="cls-2" points="-74.13 258.25 225.88 158.25 255.88 168.25 -44.13 268.25 -74.13 258.25"/><polygon class="cls-2" points="-104.13 248.25 195.88 148.25 225.88 158.25 -74.13 258.25 -104.13 248.25"/><polygon class="cls-2" points="-134.13 238.25 165.88 138.25 195.88 148.25 -104.13 248.25 -134.13 238.25"/><polygon class="cls-2" points="-164.13 228.25 135.88 128.25 165.88 138.25 -134.13 238.25 -164.13 228.25"/><polygon class="cls-2" points="-194.13 218.25 105.88 118.25 135.88 128.25 -164.13 228.25 -194.13 218.25"/></g><g id="fugen_hell"><polygon class="cls-3" points="195.88 288.5 -104.13 188.5 -134.13 198.5 165.88 298.5 195.88 288.5"/><polygon class="cls-3" points="165.88 298.5 -134.13 198.5 -164.13 208.5 135.88 308.5 165.88 298.5"/><polygon class="cls-3" points="225.88 278.5 -74.13 178.5 -104.13 188.5 195.88 288.5 225.88 278.5"/><polygon class="cls-3" points="255.88 268.5 -44.13 168.5 -74.13 178.5 225.88 278.5 255.88 268.5"/><polygon class="cls-3" points="285.88 258.5 -14.13 158.5 -44.13 168.5 255.88 268.5 285.88 258.5"/><polygon class="cls-3" points="315.88 248.5 15.88 148.5 -14.13 158.5 285.88 258.5 315.88 248.5"/><polygon class="cls-3" points="345.88 238.5 45.88 138.5 15.88 148.5 315.88 248.5 345.88 238.5"/><polygon class="cls-3" points="375.88 228.5 75.88 128.5 45.88 138.5 345.88 238.5 375.88 228.5"/><polygon class="cls-3" points="405.88 218.5 105.88 118.5 75.88 128.5 375.88 228.5 405.88 218.5"/><polygon class="cls-3" points="15.88 288.5 315.88 188.5 345.88 198.5 45.88 298.5 15.88 288.5"/><polygon class="cls-3" points="45.88 298.5 345.88 198.5 375.88 208.5 75.88 308.5 45.88 298.5"/><polygon class="cls-3" points="-14.13 278.5 285.88 178.5 315.88 188.5 15.88 288.5 -14.13 278.5"/><polygon class="cls-3" points="-44.13 268.5 255.88 168.5 285.88 178.5 -14.13 278.5 -44.13 268.5"/><polygon class="cls-3" points="-74.13 258.5 225.88 158.5 255.88 168.5 -44.13 268.5 -74.13 258.5"/><polygon class="cls-3" points="-104.13 248.5 195.88 148.5 225.88 158.5 -74.13 258.5 -104.13 248.5"/><polygon class="cls-3" points="-134.13 238.5 165.88 138.5 195.88 148.5 -104.13 248.5 -134.13 238.5"/><polygon class="cls-3" points="-164.13 228.5 135.88 128.5 165.88 138.5 -134.13 238.5 -164.13 228.5"/><polygon class="cls-3" points="-194.13 218.5 105.88 118.5 135.88 128.5 -164.13 228.5 -194.13 218.5"/></g></g><g id="wand"><g id="wand_rechts"><polygon class="cls-4" points="105.88 138.5 361.13 223.5 361.13 -91.5 105.88 -91.5 105.88 138.5"/></g><g id="wand_links"><polygon class="cls-5" points="105.88 138.5 -149.13 223.5 -149.13 -91.5 105.88 -91.5 105.88 138.5"/></g></g><g id="kachelwand"><polygon id="wand_rechts-2" data-name="wand_rechts" class="cls-6" points="165.88 38.5 105.88 18.5 105.88 138.5 165.88 158.5 165.88 38.5"/><polygon id="wand_links-2" data-name="wand_links" class="cls-6" points="45.88 38.5 105.88 18.5 105.88 138.5 45.88 158.5 45.88 38.5"/><g id="fugen_rechts"><polygon class="cls-7" points="135.88 148.5 165.88 158.5 165.88 38.5 135.88 28.5 135.88 148.5"/><polygon class="cls-7" points="105.88 138.5 135.88 148.5 135.88 28.5 105.88 18.5 105.88 138.5"/><polygon class="cls-7" points="105.88 48.5 165.88 68.5 165.88 38.5 105.88 18.5 105.88 48.5"/><polygon class="cls-7" points="105.88 78.5 165.88 98.5 165.88 68.5 105.88 48.5 105.88 78.5"/><polygon class="cls-7" points="105.88 108.5 165.88 128.5 165.88 98.5 105.88 78.5 105.88 108.5"/><polygon class="cls-7" points="105.88 138.5 165.88 158.5 165.88 128.5 105.88 108.5 105.88 138.5"/></g><g id="fugen_links"><polygon class="cls-7" points="75.88 148.5 45.88 158.5 45.88 38.5 75.88 28.5 75.88 148.5"/><polygon class="cls-7" points="105.88 138.5 75.88 148.5 75.88 28.5 105.88 18.5 105.88 138.5"/><polygon class="cls-7" points="105.88 48.5 45.88 68.5 45.88 38.5 105.88 18.5 105.88 48.5"/><polygon class="cls-7" points="105.88 78.5 45.88 98.5 45.88 68.5 105.88 48.5 105.88 78.5"/><polygon class="cls-7" points="105.88 108.5 45.88 128.5 45.88 98.5 105.88 78.5 105.88 108.5"/><polygon class="cls-7" points="105.88 138.5 45.88 158.5 45.88 128.5 105.88 108.5 105.88 138.5"/></g></g><g id="wanne"><polygon id="wanne-2" data-name="wanne" class="cls-8" points="165.88 158.5 105.88 178.5 45.88 158.5 105.88 138.5 165.88 158.5"/><g id="abfluss"><path class="cls-9" d="M109,148.66c0,.6-1.4,1.09-3.13,1.09s-3.12-.49-3.12-1.09v-.32H109Z"/><ellipse class="cls-10" cx="105.87" cy="148.34" rx="3.13" ry="1.09"/></g><path id="schatten" class="cls-11" d="M155.37,158.75s-44-14-49.5-14-49.5,14-49.5,14l49.5-16.5Z"/></g><g id="halterungen_hinten"><g id="scharnier_unten"><path class="cls-12" d="M167.14,147.84c.14,0-2.46-9-2.53-8.93l.25-.09a.47.47,0,0,1,.26,0l2.16.72a.54.54,0,0,1,.34.48v7.37a.36.36,0,0,1-.23.36Z"/><path class="cls-13" d="M166.88,147.84l-2.16-.73a.53.53,0,0,1-.35-.47v-7.37a.36.36,0,0,1,.24-.36.38.38,0,0,1,.26,0l2.16.73a.52.52,0,0,1,.34.47v7.37a.35.35,0,0,1-.23.36A.38.38,0,0,1,166.88,147.84Z"/><path class="cls-14" d="M161.38,148.34c-.14-.05,4.24-8.84,4.24-8.84l-.25-.08-4.15,1.38a.55.55,0,0,0-.35.48v6.62a.38.38,0,0,0,.26.35Z"/><path class="cls-15" d="M161.62,148.34l4-1.34v-7.5l-4.15,1.39a.53.53,0,0,0-.35.47V148a.39.39,0,0,0,.26.36A.49.49,0,0,0,161.62,148.34Z"/></g><g id="scharnier_oben"><path class="cls-16" d="M167.14,57.84c.14,0-2.46-9-2.53-8.93l.25-.09a.47.47,0,0,1,.26,0l2.16.72a.54.54,0,0,1,.34.48V57.4a.36.36,0,0,1-.23.36Z"/><path class="cls-17" d="M166.88,57.84l-2.16-.73a.53.53,0,0,1-.35-.47V49.27a.36.36,0,0,1,.24-.36.38.38,0,0,1,.26,0l2.16.73a.52.52,0,0,1,.34.47v7.37a.35.35,0,0,1-.23.36A.38.38,0,0,1,166.88,57.84Z"/><path class="cls-18" d="M161.38,58.34c-.14-.05,4.24-8.84,4.24-8.84l-.25-.08-4.15,1.38a.55.55,0,0,0-.35.48V57.9a.38.38,0,0,0,.26.35Z"/><path class="cls-15" d="M161.62,58.34l4-1.34V49.5l-4.15,1.39a.53.53,0,0,0-.35.47V58a.39.39,0,0,0,.26.36A.49.49,0,0,0,161.62,58.34Z"/></g><g id="griff"><path class="cls-19" d="M109,113.5a.78.78,0,0,0-.22,0,1,1,0,0,0-.88,1.12,1.12,1.12,0,0,0,.66,1.09l1.5.5a.78.78,0,0,0,.22,0,1,1,0,0,0,.87-1.13,1.11,1.11,0,0,0-.65-1.09Z"/><ellipse class="cls-15" cx="110.25" cy="115.09" rx="0.88" ry="1.13"/></g><g id="wandhalterung_links_unten"><polygon class="cls-20" points="50.38 144.5 46.63 145.75 46.63 140.75 50.38 139.5 50.38 144.5"/><polygon class="cls-15" points="50.13 147.08 46.13 145.75 46.13 140.75 50.13 142.08 50.13 147.08"/><polygon class="cls-21" points="50.13 147.08 50.38 147 50.38 142 50.13 142.08 50.13 147.08"/><polygon class="cls-22" points="46.63 140.75 50.38 139.5 50.13 139.42 46.13 140.75 50.13 142.08 50.38 142 46.63 140.75"/></g><g id="wandhalterung_links_oben"><polygon class="cls-23" points="50.38 54.5 46.63 55.75 46.63 50.75 50.38 49.5 50.38 54.5"/><polygon class="cls-15" points="50.13 57.08 46.13 55.75 46.13 50.75 50.13 52.08 50.13 57.08"/><polygon class="cls-24" points="50.13 57.08 50.38 57 50.38 52 50.13 52.08 50.13 57.08"/><polygon class="cls-25" points="46.63 50.75 50.38 49.5 50.13 49.42 46.13 50.75 50.13 52.08 50.38 52 46.63 50.75"/></g><g id="deckenhalterung"><polygon class="cls-15" points="76.13 50.15 76.13 48.75 76.88 48.5 76.88 50.4 76.13 50.15"/><path class="cls-26" d="M74.62,44.38v5.5c0,.48.56.87,1.25.87l.25,0v-2l.75-.25v1.9a.72.72,0,0,0,.25-.52v-5.5Z"/></g></g><g id="glas"><g id="glas_rechts"><polygon class="cls-27" points="165.88 158.5 105.88 178.5 105.88 58.5 165.88 38.5 165.88 158.5"/></g><g id="glas_links"><polygon class="cls-28" points="45.88 158.5 105.88 178.5 105.88 58.5 45.88 38.5 45.88 158.5"/></g><g id="spiegelung_rechts"><polygon class="cls-29" points="165.88 84.5 165.88 38.73 120.96 173.47 138.13 167.75 165.88 84.5"/><polygon class="cls-30" points="115.45 175.31 160.45 40.31 156.16 41.74 111.16 176.74 115.45 175.31"/><polygon class="cls-31" points="105.88 120.31 105.88 166.09 146.22 45.05 129.06 50.77 105.88 120.31"/></g><g id="spiegelung_links"><rect class="cls-32" x="17.39" y="105.66" width="113.84" height="4.63" transform="translate(-51.63 144.33) rotate(-71.57)"/><polygon class="cls-33" points="69.12 46.25 45.88 115.98 45.88 158.5 50.69 160.1 86.69 52.1 69.12 46.25"/></g><g id="kante_rechts" class="cls-34"><path class="cls-35" d="M165.38,39.19v119l-59,19.67V58.86l59-19.67m.5-.69-60,20v120l60-20V38.5Z"/></g><g id="kante_links" class="cls-34"><path class="cls-35" d="M46.38,39.19l59,19.67v119l-59-19.67V39.19m-.5-.69v120l60,20V58.5l-60-20Z"/></g></g><g id="halterungen_vorne"><g id="scharnier_unten-2" data-name="scharnier_unten"><path class="cls-36" d="M162.13,148.59c-.14-.05,4.24-8.84,4.24-8.84l-.25-.08L162,141.05a.55.55,0,0,0-.35.48v6.62a.38.38,0,0,0,.26.35Z"/><path class="cls-37" d="M162.37,148.59l4-1.34v-7.5l-4.15,1.39a.53.53,0,0,0-.35.47v6.62a.39.39,0,0,0,.26.36A.49.49,0,0,0,162.37,148.59Z"/><polygon class="cls-15" points="166.38 141.71 166.38 141.75 163.38 142.75 163.38 146.25 166.63 145.17 166.63 141.79 166.38 141.71"/><path class="cls-38" d="M163.61,142.67l-.24.08v3.38a1.38,1.38,0,0,0,.75,0l2.5-.84v-3.5l-2.5.84A1.15,1.15,0,0,1,163.61,142.67Z"/></g><g id="scharnier_oben-2" data-name="scharnier_oben"><path class="cls-39" d="M162.13,58.59c-.14-.05,4.24-8.84,4.24-8.84l-.25-.08L162,51.05a.55.55,0,0,0-.35.48v6.62a.38.38,0,0,0,.26.35Z"/><path class="cls-40" d="M162.37,58.59l4-1.34v-7.5l-4.15,1.39a.53.53,0,0,0-.35.47v6.62a.39.39,0,0,0,.26.36A.49.49,0,0,0,162.37,58.59Z"/><polygon class="cls-15" points="166.38 51.71 166.38 51.75 163.38 52.75 163.38 56.25 166.63 55.17 166.63 51.79 166.38 51.71"/><path class="cls-41" d="M163.61,52.67l-.24.08v3.38a1.38,1.38,0,0,0,.75,0l2.5-.84v-3.5l-2.5.84A1.15,1.15,0,0,1,163.61,52.67Z"/></g><g id="griff-2" data-name="griff"><path class="cls-42" d="M111,114.17a.54.54,0,0,0-.22,0,1,1,0,0,0-.88,1.13,1.12,1.12,0,0,0,.66,1.09l1.5.5a.78.78,0,0,0,.22,0,1,1,0,0,0,.87-1.12,1.09,1.09,0,0,0-.65-1.09Z"/><ellipse class="cls-43" cx="112.25" cy="115.76" rx="0.88" ry="1.13"/></g><g id="wandhalterung_links_unten-2" data-name="wandhalterung_links_unten"><polygon class="cls-44" points="49.38 147.33 45.38 146 45.38 141 49.38 142.33 49.38 147.33"/><polygon class="cls-45" points="49.38 147.33 49.63 147.25 49.63 142.25 49.38 142.33 49.38 147.33"/><polygon class="cls-46" points="45.38 141 49.38 142.33 49.63 142.25 45.63 140.92 45.38 141"/></g><g id="wandhalterung_links_oben-2" data-name="wandhalterung_links_oben"><polygon class="cls-47" points="49.38 57.33 45.38 56 45.38 51 49.38 52.33 49.38 57.33"/><polygon class="cls-48" points="49.38 57.33 49.63 57.25 49.63 52.25 49.38 52.33 49.38 57.33"/><polygon class="cls-49" points="45.38 51 49.38 52.33 49.63 52.25 45.63 50.92 45.38 51"/></g><g id="halterung_decke"><rect class="cls-9" x="75" y="24.63" width="1.75" height="2.25"/><path class="cls-26" d="M76.12,48.75l.75-.25.25-.08v-4h-2.5v5.5c0,.48.56.87,1.25.87l.25,0Z"/><path class="cls-50" d="M75.87,45.25c.7,0,1.25-.39,1.25-.87,0,0-.64-1.62-.67-1.68a.77.77,0,0,0-1.15,0c0,.06-.68,1.68-.68,1.68C74.62,44.86,75.18,45.25,75.87,45.25Z"/><path class="cls-51" d="M76.5,25.88c0-.25-.28-.44-.63-.44s-.62.19-.62.44v17c0,.24.28.43.62.43s.63-.19.63-.43Z"/><path class="cls-52" d="M75.87,22.75c-.48,0-.87.28-.87.63v1.25c0,.34.39.62.87.62s.88-.28.88-.62V23.38C76.75,23,76.36,22.75,75.87,22.75Z"/></g></g></svg>